# xmcd CD database file generated by OrangeCD 5.2
#
# Track frame offsets:
#	150
#	13265
#	28236
#	39476
#	54878
#	66818
#	82414
#	96679
#	113313
#	124779
#
# Disc length: 1859 seconds
#
# Revision: 0
# Processed by: cddbd v1.5.1PL2 Copyright (c) Steve Scherf et al.
# Submitted via: OrangeCD 5.2
#
DISCID=8607410a
DTITLE=Shelly West - Red Hot
DYEAR=1900
DGENRE=
TTITLE0=Good And Lonesome
TTITLE1=Now I Lay Me Down To Cheat
TTITLE2=Somebody Buy This Cowgirl A Beer
TTITLE3=Again
TTITLE4=Another Motel Memory
TTITLE5=Small Talk
TTITLE6=Love Me Again
TTITLE7=Suite Sixteen
TTITLE8=Let's Make Love Tonight
TTITLE9=Dance Away
EXTD=
EXTT0=
EXTT1=
EXTT2=
EXTT3=
EXTT4=
EXTT5=
EXTT6=
EXTT7=
EXTT8=
EXTT9=
PLAYORDER=
